<svg xmlns="http://www.w3.org/2000/svg" viewBox="0 0 512 512">
  <defs>
    <linearGradient id="grad" x1="0%" y1="0%" x2="100%" y2="100%">
      <stop offset="0%" style="stop-color:#8b5cf6"/>
      <stop offset="100%" style="stop-color:#6366f1"/>
    </linearGradient>
  </defs>
  <rect width="512" height="512" rx="96" fill="url(#grad)"/>
  <path d="M256 140c-30.9 0-59.4 9.5-83.1 25.7-23.7 16.2-42.5 39.2-53.7 65.8-11.3 26.6-14.4 55.8-9 84.1 5.4 28.3 18.8 54.2 38.5 73.9s45.6 33.1 73.9 38.5c28.3 5.4 57.5 2.3 84.1-9s49.6-30 65.8-53.7c16.2-23.7 25.7-52.2 25.7-83.1 0-41.4-16.5-81.2-45.8-110.5S297.4 140 256 140zm0 220c-22.1 0-43.3-6.8-61.2-19.5s-31.8-30.8-40-51.1c-8.2-20.3-10.2-42.6-5.9-64.2 4.3-21.6 14.8-41.4 30.2-56.9s35.3-25.9 56.9-30.2c21.6-4.3 43.9-2.3 64.2 5.9s38.4 22.2 51.1 40.1c12.7 17.9 19.5 39.1 19.5 61.2 0 29.5-11.7 57.8-32.6 78.7S285.5 360 256 360z" fill="rgba(255,255,255,0.9)"/>
  <circle cx="256" cy="282" r="50" fill="white"/>
  <path d="M256 200c-8.8 0-16-7.2-16-16v-24c0-8.8 7.2-16 16-16s16 7.2 16 16v24c0 8.8-7.2 16-16 16z" fill="white"/>
</svg>
